Coordinates
version=1
nRows=14
nColumns=40
inDegrees=yes

Units are S.I. units (second, meters, Newtons, ...)
Angles are in degrees.

endheader
time	pelvis_tilt	pelvis_list	pelvis_rotation	pelvis_tx	pelvis_ty	pelvis_tz	hip_flexion_r	hip_adduction_r	hip_rotation_r	knee_angle_r	knee_angle_r_beta	ankle_angle_r	subtalar_angle_r	mtp_angle_r	hip_flexion_l	hip_adduction_l	hip_rotation_l	knee_angle_l	knee_angle_l_beta	ankle_angle_l	subtalar_angle_l	mtp_angle_l	lumbar_extension	lumbar_bending	lumbar_rotation	arm_flex_r	arm_add_r	arm_rot_r	elbow_flex_r	pro_sup_r	wrist_flex_r	wrist_dev_r	arm_flex_l	arm_add_l	arm_rot_l	elbow_flex_l	pro_sup_l	wrist_flex_l	wrist_dev_l
      5.05000000	     -3.12931535	     -3.83516736	     -2.13235248	      0.74162931	      0.92282392	      0.47956473	     21.64277012	      0.63332662	     -9.60642569	     22.49373199	     22.49373199	      5.69062160	     -5.46611767	     -3.01823186	      0.55065087	     -7.29321005	     -8.61126809	     27.36453953	     27.36453953	     19.12336453	     -5.52030184	     -6.10879717	     -7.88117134	      4.62651201	     -1.81763374	     -7.23290060	    -13.59252545	     -7.86072339	     38.85691069	     46.28323099	      0.00000000	      0.00000000	     10.38198805	    -12.90742604	     -8.87579447	     58.43018633	     47.07051711	      0.00000000	      0.00000000
      5.06400000	     -3.06996859	     -4.06893880	     -1.82696640	      0.74222658	      0.92364110	      0.48310797	     20.87619613	      1.05166611	     -9.98147082	     22.26810744	     22.26810744	      6.18351212	     -5.33144279	     -3.17433500	      2.09467803	     -8.18142008	     -7.77276055	     31.07263597	     31.07263597	     17.74113046	     -6.79200466	     -7.43833419	     -7.88843293	      4.75165530	     -1.93510687	     -5.81190595	    -13.66307952	     -7.89637416	     40.16398996	     46.23801578	      0.00000000	      0.00000000	      9.65139606	    -12.85019965	     -8.58329202	     56.84870044	     47.02039168	      0.00000000	      0.00000000
      5.07800000	     -3.03570220	     -4.19989630	     -1.55412932	      0.74269214	      0.92433845	      0.48656269	     20.16253536	      1.35438328	    -10.35082100	     22.05435267	     22.05435267	      6.59714276	     -5.13065361	     -3.42058012	      3.63125440	     -8.84068285	     -6.72178847	     34.36475135	     34.36475135	     13.68158810	     -9.83975455	    -13.91265765	     -7.82615532	      4.80840862	     -1.24043746	     -5.81090175	    -14.16164565	     -7.37611254	     44.25115861	     46.02136051	      0.00000000	      0.00000000	     10.47191413	    -12.36155692	     -7.74819587	     51.88194290	     46.89863807	      0.00000000	      0.00000000
      5.09200000	     -3.00896124	     -4.37975440	     -1.22039363	      0.74295101	      0.92488555	      0.48995631	     19.45771593	      1.70049687	    -10.76535863	     21.81768714	     21.81768714	      7.00229821	     -4.90088744	     -3.59312768	      5.60171918	     -9.59966233	     -5.61660288	     38.43081569	     38.43081569	     10.75834765	    -12.01465915	    -16.86688937	     -7.82511553	      4.85435685	     -1.06524221	     -4.83926494	    -14.37319953	     -7.58098997	     46.62728629	     45.92209491	      0.00000000	      0.00000000	     10.02825528	    -12.22131071	     -7.01947881	     49.71826012	     46.80546876	      0.00000000	      0.00000000
      5.10600000	     -2.94368477	     -4.62521821	     -0.87630275	      0.74296511	      0.92534241	      0.49330011	     18.72533929	      2.12565076	    -11.17391086	     21.56511992	     21.56511992	      7.40329705	     -4.72011635	     -3.69956113	      7.80478841	    -10.44330640	     -4.55141546	     42.91701093	     42.91701093	      8.75584908	    -13.07721595	    -17.07792021	     -7.91676706	      4.90582775	     -1.09744489	     -3.15432689	    -14.55520832	     -7.74747585	     47.78655720	     45.89419874	      0.00000000	      0.00000000	      9.12591380	    -12.09106819	     -6.81921714	     48.48555903	     46.76518047	      0.00000000	      0.00000000
      5.12000000	     -2.96527903	     -4.71551945	     -0.49075842	      0.74267154	      0.92561579	      0.49618530	     18.17360495	      2.31001221	    -11.69340698	     21.43422817	     21.43422817	      7.79917356	     -4.39230975	     -3.81701968	     10.21447330	    -10.88932662	     -3.21061704	     47.30164718	     47.30164718	      6.51964602	    -14.55379107	    -16.57237643	     -7.86798138	      4.93477334	     -0.87942734	     -2.35475962	    -15.05487949	     -7.44864578	     51.27810928	     45.74007794	      0.00000000	      0.00000000	      9.43259444	    -11.72055233	     -6.51786905	     44.21486374	     46.69825459	      0.00000000	      0.00000000
      5.13400000	     -2.83741834	     -4.96755758	     -0.11409741	      0.74220832	      0.92595558	      0.49904847	     17.44414442	      2.71213138	    -12.13015454	     21.22795876	     21.22795876	      8.12939173	     -4.26408219	     -3.88550983	     12.50045351	    -11.53864244	     -2.06355350	     51.48710272	     51.48710272	      4.41206547	    -15.42422051	    -15.95802840	     -8.10010023	      5.04861457	     -0.75992746	     -0.53428065	    -15.37061482	     -7.67102408	     52.45552102	     45.71614387	      0.00000000	      0.00000000	      8.58328680	    -11.48820710	     -6.35949327	     43.18285356	     46.66350447	      0.00000000	      0.00000000
      5.14800000	     -2.96306053	     -5.09867700	      0.38902643	      0.74143701	      0.92595742	      0.50141659	     16.98136599	      2.92945585	    -12.65292232	     20.97110256	     20.97110256	      8.48695050	     -4.03114015	     -3.96415352	     15.16026033	    -11.77148816	     -0.59987784	     55.42201491	     55.42201491	      2.76576305	    -16.34434460	    -13.83672709	     -7.96219804	      5.09496528	     -1.35436890	      1.28964506	    -15.46785309	     -7.77174187	     54.54808048	     45.65295658	      0.00000000	      0.00000000	      7.56042032	    -11.47166697	     -6.20281071	     40.98644279	     46.61885302	      0.00000000	      0.00000000
      5.16200000	     -2.87423010	     -5.10784506	      0.80450592	      0.74043310	      0.92630063	      0.50345164	     16.39464811	      2.95130410	    -13.27569652	     20.90806997	     20.90806997	      8.94911520	     -3.46857229	     -4.00529511	     17.68420211	    -11.77121848	      0.59791191	     59.34313339	     59.34313339	      4.02172443	    -15.50885163	     -5.24659023	     -8.19988319	      5.04075048	     -0.57288844	      1.91174869	    -16.53568547	     -7.10461126	     58.47729103	     45.48521698	      0.00000000	      0.00000000	      8.51312447	    -10.68679930	     -6.25653650	     36.25508374	     46.60461912	      0.00000000	      0.00000000
      5.17600000	     -2.86187072	     -5.25163907	      1.25782827	      0.73926738	      0.92657301	      0.50544413	     15.78105716	      3.21310698	    -13.68857206	     20.56529347	     20.56529347	      9.21307957	     -3.36050072	     -3.99100709	     19.97177554	    -11.96101958	      1.59225845	     62.05072068	     62.05072068	      2.82494491	    -16.24060425	     -3.69684508	     -8.34771650	      5.09940895	     -0.76242019	      3.99009969	    -16.70638964	     -7.49096194	     60.08132757	     45.45485893	      0.00000000	      0.00000000	      7.51740457	    -10.53596458	     -6.19405847	     34.98100079	     46.57596561	      0.00000000	      0.00000000
      5.19000000	     -2.82493685	     -5.24675326	      1.67502453	      0.73787846	      0.92700731	      0.50703780	     15.19110661	      3.24236635	    -14.23723244	     20.33212110	     20.33212110	      9.55971216	     -2.85081158	     -4.03246283	     22.29721434	    -11.86066679	      2.45236152	     64.50661904	     64.50661904	      4.13298580	    -15.93971990	      3.25314799	     -8.57301599	      5.06958233	     -0.29954852	      5.30993457	    -17.48756663	     -7.35347521	     62.92677936	     45.36122309	      0.00000000	      0.00000000	      7.61604471	     -9.95033592	     -6.42004902	     31.86171531	     46.58755111	      0.00000000	      0.00000000
      5.20400000	     -2.81131681	     -5.27935131	      2.09565956	      0.73637714	      0.92754604	      0.50857476	     14.54375959	      3.38324183	    -14.62649686	     19.88621933	     19.88621933	      9.78368418	     -2.62796392	     -4.02494862	     24.36077383	    -11.84816934	      3.06749730	     65.88641343	     65.88641343	      4.26414053	    -16.31893985	      6.04816483	     -8.79608278	      5.06136827	     -0.17314690	      7.20139504	    -17.85329099	     -7.67281179	     64.93143970	     45.32118080	      0.00000000	      0.00000000	      7.00231404	     -9.60220698	     -6.73922704	     30.16367580	     46.60395111	      0.00000000	      0.00000000
      5.21800000	     -2.84566832	     -5.30547077	      2.47092511	      0.73471860	      0.92812749	      0.50997174	     13.91510830	      3.54985871	    -14.89510812	     19.34429439	     19.34429439	      9.93916605	     -2.48648397	     -3.96357793	     26.25095531	    -11.84523515	      3.45452917	     66.36539438	     66.36539438	      3.91295633	    -16.97264699	      6.47867850	     -8.99074689	      5.05275242	      0.05870808	      9.30418134	    -18.27896166	     -7.98086463	     66.17680353	     45.30119178	      0.00000000	      0.00000000	      6.08709318	     -9.29372869	     -6.70006674	     29.46546786	     46.57984514	      0.00000000	      0.00000000
      5.23200000	     -2.88294450	     -5.26442047	      2.88155112	      0.73305766	      0.92890850	      0.51113559	     13.18933286	      3.65043069	    -15.26162944	     18.61655505	     18.61655505	     10.08269540	     -2.21251073	     -3.91516151	     27.95225976	    -11.70097238	      3.73690564	     66.03228241	     66.03228241	      3.98617409	    -17.46681416	      7.21114437	     -9.15015300	      5.00844266	     -0.05615749	     11.50582236	    -18.41926445	     -8.11264067	     67.97254107	     45.25697460	      0.00000000	      0.00000000	      5.08203064	     -9.11379935	     -6.67909656	     28.44613182	     46.55741150	      0.00000000	      0.00000000
